<?xml version="1.0" encoding="UTF-8"?><svg xmlns="http://www.w3.org/2000/svg" viewBox="0 0 626 626"><defs><style>.d{fill:#a1c0c2;}.e{fill:#c2d8dd;}.f{fill:#9bbcbe;}.g{fill:#fafeec;}.h{fill:#d1e1e4;}.i{fill:#798988;}.j{fill:#fefcdf;}.k{fill:#bcd6db;}.l{fill:#dbd6ca;}.m{fill:#adccd5;}.n{fill:#b1ced4;}.o{fill:#d7d3c0;}.p{fill:#f2f0d7;}.q{fill:#aeccd1;}.r{fill:#7e96a4;}.s{fill:#acb9b2;}.t{fill:#7fa5af;}.u{fill:#fefce1;}.v{fill:#e6e2ce;}.w{fill:#a7c7ce;}.x{fill:#abc6c8;}.y{fill:#b2ced4;}.a`{fill:#ebe8d3;}.aa{fill:#fcfee6;}.ab{fill:#75878b;}.ac{fill:#dee5d8;}.ad{fill:#96babd;}.ae{fill:#fefde8;}.af{fill:#dddbd2;}.ag{fill:#aacad0;}.ah{fill:#f4f0df;}.ai{fill:#c1d9de;}.aj{fill:#7e9196;}.ak{fill:#d9e7ec;}.al{fill:#e2decf;}.am{fill:#bfd8d1;}.an{fill:#c1d8dd;}.ao{fill:#a1c4cb;}.ap{fill:#8eb3b6;}.aq{fill:#98babc;}.ar{fill:#dedac8;}.as{fill:#d8d4c1;}.at{fill:#fdfce7;}.au{fill:#b2cfd4;}.av{fill:#9cc0c8;}.aw{fill:#eeede2;}.ax{fill:#e4eef5;}.ay{fill:#a0c4cb;}.b`{fill:#9fc4cd;}.ba{fill:#a1bcba;}.bb{fill:#bcd4d8;}.bc{fill:#f9fdec;}.bd{fill:#a5c6cd;}.be{fill:#75909c;}.bf{fill:#e1eef1;}.bg{fill:#7c9ea4;}.bh{fill:#fefee9;}.bi{fill:#c9dcdf;}.bj{fill:#dbd7c4;}.bk{fill:#fefeea;}.bl{fill:#95bac3;}.bm{fill:#c8dde1;}.bn{fill:#fdfcef;}.bo{fill:#7d9fa4;}.bp{fill:#94b5b9;}.bq{fill:#7f9196;}.br{fill:#dfdbc8;}.bs{fill:#c2d9dd;}.bt{fill:#d2e4e7;}.bu{fill:#fbfeed;}.bv{fill:#fefee7;}.bw{fill:#7ea6b3;}.bx{fill:#dceaed;}.by{fill:#fefee6;}.c`{fill:#ccdfe3;}.ca{fill:#b4c8c4;}.cb{fill:#dddcd0;}.cc{fill:#ddd8cc;}.cd{fill:#fefce9;}.ce{fill:#c3d9e0;}.cf{fill:#7e98a8;}.cg{fill:#e9e6cf;}.ch{fill:#c6dce0;}.ci{fill:#97bbc0;}.cj{fill:#86b2ba;}.ck{fill:#cfe2e7;}.cl{fill:#b8d3d8;}.cm{fill:#b4cbc9;}.cn{fill:#fefeeb;}.co{fill:#f9fdea;}.cp{fill:#e2ddd1;}.cq{fill:#9ec0c7;}.cr{fill:#dae6ed;}.cs{fill:#afcacf;}.ct{fill:#6f8181;}.cu{fill:#d8d4c3;}.cv{fill:#d9d5c4;}.cw{fill:#accad0;}</style></defs><g id="a"/><g id="b"><g id="c"><g><path class="n" d="M.1,313C.1,210.03,.12,107.06,0,4.09,0,.67,.67,0,4.09,0,210.03,.11,415.97,.11,621.91,0c3.42,0,4.09,.67,4.09,4.09-.11,205.94-.11,411.88,0,617.81,0,3.42-.67,4.09-4.09,4.09-205.94-.11-411.88-.11-617.81,0-3.42,0-4.1-.67-4.09-4.09,.12-102.97,.1-205.94,.1-308.91Z"/><path class="u" d="M424.88,79.19l5.91,1c4.52-.53,6.92,2.56,9.41,5.5,2.22,3.74,2.28,7.87,2.28,12.05-.02,124.5-.01,248.99-.01,373.49,0,17.81,.02,35.62-.01,53.42,.06,2.82-.92,5.36-2.19,7.81-2.09,3.02-4.3,5.9-8.23,6.65-3.37,1.05-6.82,1.36-10.35,1.36-72.28-.03-144.55-.03-216.83-.03-1,0-2.01-.08-3,0-4.11,.35-5.42-1.42-5.39-5.56,.17-25.31,.08-50.63,.08-75.94,0-118.41,0-236.81-.01-355.22,0-1.99,.21-4-.2-5.97-.6-3.07,2.02-3.88,3.74-5.32,6.37-3.45,12.89-6.65,18.91-10.73,4.09-1.43,7.43-5.43,12.47-3.67,35.33,.04,70.64,.15,105.95-.05,2.61,.28,5.25,.41,7.49,2.16,.9,.7,2.12,1.05,3.22,1.22,4.45,.71,9.03,.83,13.06,3.28,8.03,.59,16.08,.64,24.06,1.72,3.48,.47,6.89,.19,10.29-.61,2.13-.03,3.89-.6,4.48-2.98,.69-2.79,2.65-3.22,5.24-3.24,6.55-.05,13.12,.53,19.65-.32Z"/><path class="ag" d="M448.96,79.08c2.42,.86,3.04,2.66,3.03,5.1-.05,26.65,.28,53.3-.18,79.94-.2,11.71,.04,23.39,.07,35.08,.17,64.45,.88,128.91-.2,193.35-.73,43.61-.15,87.21-.73,130.81-.15,10.95-7.52,21.89-17.1,25.67-1.93,.76-3.86,.92-5.86,.92-75.44,0-150.88,0-226.33,0-2.83,0-6.05,.57-5.63-4,3.15-1.72,6.6-1.98,10.08-1.99,68.25-.01,136.5-.04,204.75,.05,5.3,0,10.61,.4,15.93,.42,7.98,.03,13.9-5.06,17.06-12.47,1.9-4.45,1.66-8.5,1.62-12.88-.11-10.46-.24-20.92,.97-31.34,.1-29.24-.2-58.48,.15-87.72,.81-2.92,.85-5.91,.85-8.91,0-79.33-.02-158.66,.03-237.99,0-3.02-.71-5.93-.82-8.92,.58-17.75,.18-35.5,.21-53.26,0-4.01-1.33-8.38,2.07-11.84Z"/><path class="ao" d="M447.96,487.95c-1.11,10.1-1.62,20.29-.8,30.37,.49,5.98-.61,11.29-2.43,16.75-1.65,4.97-9.79,10.84-15.5,10.86-15.49,.04-30.98,.01-46.47,.01-58.3,0-116.6,.04-174.9-.08-3.94,0-7.88,1.7-11.82,.07-.02-1.33-.05-2.66-.08-3.99,.24-.22,.49-.43,.73-.65,3.26-.8,6.58-.86,9.91-.86,67.81,0,135.61,.03,203.42-.07,4.8,0,9.55,1.93,14.36,.3,2.56,.14,5.13,.28,7.66-.38,6.72-1.48,11-7.43,11.38-15.97,.48-10.71-.25-21.42,.04-32.12,.05-1.96-.36-3.99,.69-5.84,2.25-1.81,2.8,.43,3.79,1.6Z"/><path class="bd" d="M448,485.14l-2.86,.96c-3.17-4.5-1.04-9.57-1.66-14.34,0-11.83,.48-23.68-.12-35.47-.78-15.3,3.6-30.32,2.1-45.58-4.47-45.29-.75-90.69-1.96-136.03-.08-2.96-.43-6.01,1.47-8.7,.6-.84,.71-2,.34-2.9-3.72-9.01-1.13-18.42-1.78-27.62-.31-4.48-.05-8.99-.05-13.49,0-33.31,0-66.61,0-99.92,0-2.83,.16-5.67-.53-8.44-2.16-5.42-1.19-10.63,1.61-15.72l4.44,1.18c0,21.63,0,43.26,0,64.9-.91,1.55-.49,3.26-.48,4.88,.12,13.61-.04,27.22-.1,40.83-.05,12.27-.36,24.54-.38,36.8-.08,51.36-.13,102.73,.02,154.09,.02,6.44,1,12.88-.07,19.31,0,28.41,0,56.83,0,85.24Z"/><path class="aa" d="M197,96.14c0,145.08,0,290.16,0,435.25q0,7.54,7.65,7.54c69.29,0,138.59,0,207.88,0,6.97,0,13.99,.57,20.74-1.84-.92,4.18-4.12,4.11-7.37,3.94-5.32,.91-10.62-.11-15.93-.11-67.78,.02-135.55,.03-203.33-.03-3.32,0-6.7,.99-9.99-.34l-.65-1.01c-.01-127.49-.02-254.97-.04-382.46,0-19.66-.05-39.32-.08-58.98-.42-.63-.55-1.28-.16-1.98,.43-.29,.85-.28,1.27,.02Z"/><path class="cq" d="M443.96,79.08c1.45,2.21,.73,4.45,.06,6.68-.64,2.1-.79,4.2-.05,6.31,.04,1.26-.17,2.49-.4,3.72-.22,15.82-.08,31.63-.09,47.44-.02,75.57,0,151.15,0,226.72,0,41.92,0,83.85,0,125.77,0,8.29,.08,16.58-.06,24.88-.03,1.94,.85,4.54-2.27,5.26-.01-37.47-.04-74.94-.04-112.41,0-104.58-.01-209.17,.06-313.75,0-5.12-.56-9.93-3.34-14.32-.29-2.11-1.48-4.24,.14-6.3,2,0,4,0,6,0Z"/><path class="m" d="M195.93,541.94c-1.48-.32-3.03,.81-2.76-2.76,.41-5.51,.84-11.13,.84-16.71-.01-136.72-.01-273.44,.02-410.16,0-1.88-.51-3.85,.97-6.74,0,3.04,0,5,0,6.96,0,140.05,0,280.1,.03,420.15,0,2.43-.75,5.03,.98,7.25l.03-.04c.29,.29,.48,.63,.55,1.03-.07,.4-.26,.74-.57,1.01h-.08Z"/><path class="bn" d="M359.99,86.07c-2.7-2.47-6.04-2.03-9.26-1.98-4.64,.07-7.5-4-11.7-4.92,.19-.27,.38-.53,.56-.8,1.46-1.41,3.32-1.48,5.12-1.33,13.38,1.13,26.78,.27,40.17,.54,6.02,.59,12.23-1.35,18.08,1.42,7.3,.06,14.61,.13,21.91,.19-5.64,1.91-11.46,.63-17.18,.8-3.59,.1-6.07,.32-5.85,4.98,.2,4.37-3.54,2.72-5.87,3.11-12-.66-23.9-3.08-35.99-2Z"/><path class="cl" d="M340.99,68.07c.34-1.67,.67-3.33,1.01-5,5.6-3.1,11.61-4.59,17.99-4.48,8.73,.14,17.54-.84,26.06,2.01,2.5,.88,4.4,2.93,6.9,3.75,6.42,2.1,6.06,9.7,1.22,12.79-.69,.44-1.33,.95-2.09,1.26-1.82,.33-3.65,.13-5.47,.16-2.75-.91-1.89-2.49-.88-4.25,2.68-4.66,2.07-6.73-3.26-8.09-4.27-1.09-8.63-2.29-13.14-2.18-3.49,.08-6.97,.04-10.46,.08-1.86,.02-3.65,.25-5.24,1.31-3.26,2.18-3.26,4.2,0,6.25,.98,.62,2.05,1.11,2.99,1.79,1.07,.77,2.48,1.52,2.41,2.96-.1,2.09-2.24,1.48-3.45,2.12-8.81,0-11.05-1.62-14.59-10.47Z"/><path class="cs" d="M339.03,79.16c-34.5-.05-69-.11-103.5-.17-1.82,0-3.65-.03-5.47-.05-.75-.33-1.44-.87-.99-1.7,.4-.74,1.23-.78,1.95-.21,33.69,0,67.39,0,101.08,.07,2.3,0,4.6-.9,6.89-.04,.51,.62,.62,1.24-.02,1.85l.07,.24Z"/><path class="c`" d="M353.92,53.12c14.03,1.31,28.06,2.62,42.09,3.93-1.64,2.65-5.24,.57-7,2.94-.45,.26-.93,.41-1.44,.48-3.51,.4-6.83-.37-10.29-.99-9.53-1.7-19.15-1.47-28.63,.93-2.17,.55-4.29,2.14-6.69,.69-1.17-1.1-1.76-2.48-1.95-4.05,2.42-3.33,6.21-3.04,9.65-3.62,1.4-.24,2.89,.64,4.25-.32Z"/><path class="k" d="M229.99,54.06c1.68,3.67,3.36,7.34,5.05,11.01-2.37,2.38-5.45,3.93-7.51,6.7-.82,1.1-2.17,1.36-3.51,.63-1.47-2.22,.11-4.07,.73-6.05,.79-2.5,.42-3.74-2.71-3.1-7.72,1.56-14.74,4.67-21.4,8.76-2.47,1.51-4.81,3.71-8.15,2.55-1.56-1.37-.52-2.66,.13-3.96,.13-.21,.26-.42,.38-.63,.31-.38,.67-.69,1.08-.94,1.59-.41,3.01-1.11,3.95-2.55,3.16-2.76,6.88-4.5,10.73-6.01,2.31,.53,4.16-.71,6-1.74,4.03-2.25,8.98-1.57,12.88-4.15,.3-.36,.67-.64,1.09-.84,.48-.11,.89,0,1.26,.32Z"/><path class="ck" d="M209.03,62.08c-3.38,1.93-7.59,2.45-10.01,5.99-1.39,1.33-3.59,.68-4.98,2.02h0c-1.07,1.07-2.47,1.76-3.35,3.03-.84,.77-1.62,1.62-2.67,2.12-2.41,.19-4.2,1.41-5.83,3.14-1.28,1.36-2.52,3.2-4.93,2.16-1.81-3.18,2.06-3.56,2.72-5.52,11.64-7.83,24.26-13.97,36.23-21.25,2.34-1.43,5.19-.49,7.8-.7,1.81-.36,3.81-1.61,5.01,1.02h0c-6.38,3.37-13.7,4.39-19.99,8Z"/><path class="bm" d="M177.04,80.07c2.34-.22,3.59-2.05,4.99-3.55,1.67-1.78,3.55-2.71,5.99-2.45,.1,.22,.21,.45,.31,.67,0,2.33-1.9,3.28-3.3,4.59-3.28,2.51-6.56,4.98-9.58,7.86-3.41,3.24-5.57,6.83-6.03,11.47-.14,.99-.47,1.88-1.39,2.42-3.47-2.04-4.16-5.91-5.97-9.05,2.67-5.3,7.34-8.65,11.85-12.15,.99-.76,2.13-.79,3.12,.18Z"/><path class="bs" d="M341.96,61.12c12.76-4.17,25.6-6.26,38.69-1.39,2.83,1.05,5.49-1.03,8.31-.65,.59,1.8-.77,2.03-1.94,2.39-.39,.13-.73,.33-1.04,.6-13.81-2.6-27.59-4.05-41.13,1.38-1.08,.43-1.93-.02-2.85-.39-.01-.65-.03-1.3-.04-1.95Z"/><path class="e" d="M338.96,78.93c0-.62,.02-1.23,.02-1.85,2.7-2.55,.1-6.28,2.01-9.01,1.17,.1,2.35,.15,2.8,1.56,1.9,5.96,6.18,8.48,12.23,8.4,8.02-3.41,16.45-1.85,24.74-2,1.34-.02,2.61,.31,3.61,1.31,.64,.38,.83,.93,.58,1.63-15.33-.01-30.67-.03-46-.04Z"/><path class="bx" d="M177.04,80.07c-3.26,.6-4.7,3.52-6.9,5.45-2.61,2.28-4.63,5.26-8.07,6.52-3.7-5.52-3.69-5.49,2.19-8.59,5.26-2.77,10.48-5.63,15.72-8.45,.68,2.65-2.47,3.08-2.94,5.06Z"/><path class="bt" d="M231.01,77.04c-1.37,.11-1.58,.8-.95,1.9-4.11,.16-7.05,3.42-10.96,4.14-.33,.38-.71,.45-1.14,.2-.73-3.25,2.53-2.65,3.99-3.99,.48-.12-.28-.77-.04-.14,.08,.21-.06,.27-.29,.4-1.17,.67-2.13,.55-2.87-.65,0-1.43,1.12-1.75,2.11-2.4,3.57-2.33,6.93-4.93,9.87-8.07,1.38-1.47,2.7-3.49,5.32-2.39,1.4,.08,2.86-.11,3.99,1.02,.54,2.23-.38,3.7-2.38,4.64-1.11,.52-2.58,.68-2.61,2.38-1.34,.99-2.69,1.97-4.03,2.96Z"/><path class="h" d="M196.07,96.13c-.05,.66-.09,1.31-.14,1.97-5-.92-7.87,3.56-12.03,4.8-1.39,.41-2.6,1.4-3.9,2.12-3.34-.56-6.65,2.36-9.99,.07l-.96-1.04c-.95-4.82,3.16-4.01,5.4-4.28,3.34-.4,6.57-.68,9.45-2.56,3.24-1.63,6.44-3.33,9.19-5.75,.47-.52,.83-1.13,1.42-1.55,.44-.22,.91-.3,1.4-.23,.46,.22,.82,.54,1.11,.95,.63,1.45,.59,2.88-.06,4.31-.27,.42-.56,.81-.89,1.18Z"/><path class="ai" d="M386,62.08l.13-1.04c4.07-1.14,7.67,0,11.08,2.27,3.43,2.27,6.05,4.83,4.13,9.45-.33,.79,.13,1.62,.65,2.31v2.01c-3.23,1.43-6.52,2.14-9.99,.98,.69-1.11,1.3-2.29,2.1-3.32,3.15-4.01,2.67-6.59-1.69-8.96-2.16-1.18-4.27-2.46-6.41-3.69Z"/><path class="ce" d="M236.04,66.04c-4.07,1.56-5.55,6.01-9.33,8.17-2.57,1.47-4.75,3.77-7.72,4.76-.46,.71-1.07,1.37-1.92,1.37-6.8,.02-13.63,1.06-20.38-.59-1.26-3.38,1.43-3.38,3.35-3.62,3.12-.39,6.3-.22,9.45-.17,3.89,.07,7.62-.06,10.52-3.28,1.01-1.12,2.47-1.73,4.01-.61,2.16-.09,2.81-1.96,3.92-3.3,1.83-2.22,4.07-3.72,7.09-3.7,.34,.33,.67,.65,1.01,.98Z"/><path class="c`" d="M401.97,75.06c-.39-.31-1.12-.64-1.11-.93,.52-9.53-7.01-10.55-13.42-12.74-.47-.16-.97-.22-1.46-.32,.99-.66,1.99-1.33,2.98-1.99l.02-.02c5.92-2.04,11.61-.02,13.95,4.97,.34,3.73-.31,7.38-.97,11.03Z"/><path class="bi" d="M185.04,98.07c-2.37,2.59-5.6,2.75-8.77,3.29-2.53,.44-5.66-.43-7.23,2.7-.93-.79-1-1.87-1.01-2.98,0-1,0-2.01,0-3.01,5.66-2.43,11.33-2.36,16.99,0Z"/><path class="ak" d="M402.94,64.04c-4.32-2.59-8.69-5.04-13.95-4.97,1.26-4.45,4.86-.73,7.03-2.02,.16,0,.33,0,.49,0q6.74,.1,6.44,6.98Z"/><path class="ax" d="M353.92,53.12c-4.45,1.97-9.23,2.76-13.9,3.94-.65-1.45-2.97-2.74-1.99-4.18,1.33-1.94,3.93-.47,5.95-.76,2.22,1.22,4.81-.32,7.03,.93l2.92,.07Z"/><path class="bf" d="M235.04,74.09c-.83-.44-3.58-.78-1.11-1.85,2.77-1.2,4.43-3.02,6.1-5.17,1.26,.37,2.52,.73,4.47,1.3-2.97,2.9-6.45,3.95-9.46,5.72Z"/><path class="cr" d="M170.01,105.1c3.33-.9,6.65-1.88,9.99-.07-1.57,.81-3.2,1.53-4.7,2.46-3.04,1.9-4.78,1.17-5.3-2.39Z"/><path class="ci" d="M437.96,79.08c1.3,2.13,1.04,4.22-.14,6.3-2.34-1.73-4.69-3.46-7.03-5.2,2.15-1.91,4.76-.87,7.17-1.1Z"/><path class="c`" d="M391.97,78.05c3.45,.93,6.56-1.7,9.99-.98,.34,.64,.67,1.28,1.01,1.92-6,0-12.01-.02-18.01-.02,.01-.29,.02-.59,.03-.88,.3-.48,.63-.49,.98-.04h6.01Z"/><path class="ch" d="M229.02,54.08c-1.45-1.4-3.3-.86-5.01-1.02,2.23-1.07,4.47-2.18,5.98,1-.32,.01-.65,.02-.97,.02Z"/><path class="c`" d="M351,53.06c-2.36-.17-4.86,.67-7.03-.93,2.36,.15,4.86-.68,7.03,.93Z"/><path class="al" d="M242.01,448h172.96c0,.76,0,1.03,0,1H242.02s0-.24,0-1Z"/><path class="cp" d="M242.01,298h172.91v1H242.02v-1Z"/><path class="br" d="M415.97,117.09c-.72,2.52-2.82,1.93-4.55,1.93-55.28,.03-110.57,.03-165.85,0-1.74,0-3.83,.55-4.55-1.95,1.55-.93,3.25-.5,4.88-.5,55.06-.03,110.13-.03,165.19,0,1.63,0,3.33-.45,4.87,.51Z"/><path class="cc" d="M241.95,338h172.92c0,.6,0,.89,0,1H241.9c.02-.11,.03-.4,.05-1Z"/><path class="cw" d="M220.32,176.12q7.64,0,7.65,7.39c0,8.49,0,8.56-6.56,8.48-10.45-.12-9.3,1.45-9.37-8.64-.05-7.23,0-7.23,8.28-7.24Z"/><path class="bl" d="M227.98,323.22c-.02,3.48-.03,6.96-.06,10.44,0,.99,.34,2.22-.12,2.94-3.15,4.99-8.05,1.23-12.06,2.21-2.21,.54-3.82-.36-3.73-3.17,.14-4.14,.05-8.28,.06-12.42,5.3-1.17,10.6-1.16,15.9,0Z"/><path class="av" d="M219.79,302.06c-8.75-.06-7.76,.63-7.7-7.22,.07-9.76-1.53-8.59,8.75-8.66,7.11-.05,7.11,0,7.1,9.55q0,6.34-8.15,6.33Z"/><path class="w" d="M212.22,227.05c-.05-.83-.14-1.65-.16-2.48-.27-12.32,.74-13.54,12.87-11.36,6.37,1.15,1.94,6.86,2.88,10.36,.55,2.06,1.12,5.37-3.04,5.28-3.81-.09-7.61-.21-11.42-.32,3.28-2.37,6.98-.16,9.48-.9,1.59-.09,.56-1.03,.9-.45-3.84,.54-7.68,.69-11.51-.12Z"/><path class="ay" d="M212.2,264.02c-.05-.99-.13-1.98-.15-2.97-.16-11.66,1.74-13.24,13.26-11.14,1.51,.27,2.64,.78,2.53,2.4-.28,4.21,1.15,8.55-.85,12.64-4.87-1.25-9.93,.41-14.79-.92Z"/><path class="cj" d="M212.24,374c-.06-.83-.2-1.66-.17-2.48,.37-13.9-2.98-11.31,12.26-11.64,2.49-.05,3.82,.8,3.56,3.43-.38,3.89,.96,7.9-.87,11.68-4.85-1.41-9.92,.36-14.78-.99Z"/><path class="aj" d="M212.23,483.96c-.06-1-.16-1.99-.17-2.99-.14-11.91,1.18-12.97,13.32-11.04,1.6,.25,2.52,.75,2.41,2.42-.29,4.25,.84,8.58-.7,12.77-1.34-2.51-.1-5.21-.56-7.4-.1,7.48,1.32,7.29-7.58,7.18-2.25-.03-4.68,.78-6.72-.94Z"/><path class="bw" d="M212.24,410.98c0-4.34,.01-8.68,.02-13.02,4.85-1.34,9.9,.36,14.75-.96,1.41,4.95,1.49,9.9-.03,14.85-4.86-1.16-9.89,.46-14.74-.87Z"/><path class="q" d="M227.04,140.04c1.87,4.59,.63,9.34,.74,14.02-5.2,.8-10.39,.81-15.59,0l.03-13.03c4.87-1.36,9.95,.45,14.82-.99Z"/><path class="bq" d="M212.27,520.98c-.02-4.35-.03-8.7-.05-13.05,3.94-2.77,8.36-1.64,12.48-1.05,2.95,.43,1.33,3.61,1.85,5.08,.14-1.3-.3-3.09,.17-4.86,.44-.5,.83-.47,1.18,.09-.54,4.89,.92,9.9-.88,14.72-4.85-1.3-9.89,.35-14.75-.93Z"/><path class="n" d="M227.83,104.13c-.02,4.32-.04,8.63-.06,12.95-4.23,1.02-8.78,1.23-12.72,.23-5.42-1.38-1.44-6.61-2.43-9.99-.58-1.99-.18-3.92,2.87-3.79,4.12,.18,8.25-.14,12.34,.61Z"/><path class="l" d="M414.96,156H242v-1h173.06c-.03-.05-.07,.24-.1,1Z"/><path class="v" d="M415.94,192.02c.01,.33,.02,.66,.03,.99-1.37,.9-2.91,.5-4.38,.51-54.38,.02-108.76,.02-163.14,0-1.47,0-3,.34-4.4-.45-.85-.47-3.36,.7-1.98-1.99,56.03-.1,112.06-.02,168.1-.03,1.96,0,4.03-.42,5.77,.97Z"/><path class="o" d="M415.92,412.01c-1.54,1.44-3.47,.94-5.24,.94-54.8,.02-109.6,.03-164.4-.05-1.39,0-3.32,1.24-4.29-.99,2.37-.95,4.86-.94,7.36-.94,53.44,0,106.88,0,160.32,.03,2.11,0,4.37-.53,6.25,1.02Z"/><path class="cu" d="M241.05,375.92c1.73-1.48,3.82-.94,5.76-.94,54.48-.03,108.96-.03,163.43,0,1.94,0,4.04-.58,5.72,1-1.96,1.25-4.16,.99-6.31,.99-53.43,.01-106.86,0-160.29,0-2.82,0-5.63-.02-8.31-1.06Z"/><path class="p" d="M241.05,375.92c58.31,.02,116.61,.04,174.92,.06l-1.01,1.01c-1.39,.83-2.92,.47-4.39,.47-54.05,.02-108.09,.02-162.14,0-1.47,0-3,.36-4.39-.47-1.12-.02-2.23-.06-2.98-1.08Z"/><path class="cv" d="M241.03,229c1.7-1.54,3.8-.97,5.74-.97,54.65-.03,109.29-.03,163.94-.01,1.78,0,3.7-.49,5.24,.97-1.72,1.45-3.8,1.02-5.75,1.02-53.78,.02-107.55,.02-161.33,.02-2.66,0-5.3-.11-7.84-1.02Z"/><path class="a`" d="M243.04,486.97c-.66-.35-1.33-.7-1.99-1.04,1.4-.81,2.93-.46,4.4-.46,55.36-.02,110.71-.02,166.07,0,1.47,0,3-.34,4.4,.44-.72,1.1-1.87,1.01-2.97,1.06-1.4,.81-2.93,.46-4.4,.46-53.7,.02-107.41,.02-161.11,0-1.47,0-3,.35-4.4-.46Z"/><path class="as" d="M242.53,522h172.47v1H242.66c-.04-.51-.09-.69-.13-1Z"/><path class="bh" d="M415.97,117.09c-58.32,0-116.63-.01-174.95-.02,1.71-1.5,3.79-1,5.73-1,54.5-.02,108.99-.02,163.49,0,1.94,0,4.03-.5,5.72,1.02Z"/><path class="bj" d="M415.92,485.91c-58.29,0-116.58,.01-174.87,.02,1.53-1.47,3.46-.96,5.23-.96,54.79-.02,109.59-.02,164.38,0,1.78,0,3.7-.48,5.25,.94Z"/><path class="ah" d="M241.03,229c58.31,0,116.61,0,174.92-.02,0,.35,.02,.69,.02,1.04-1.38,.85-2.92,.48-4.39,.48-54.38,.02-108.77,.02-163.15,0-1.47,0-3,.36-4.39-.47-1.12-.01-2.22-.07-3.01-1.03Z"/><path class="cg" d="M415.92,412.01c-57.98-.03-115.95-.07-173.93-.1,.69-.32,1.37-.65,2.06-.97,1.57-.84,3.27-.45,4.9-.45,54.05-.02,108.09-.02,162.14,0,1.63,0,3.33-.43,4.88,.49l-.05,1.03Z"/><path class="ar" d="M415.94,192.02c-56.04,0-112.07,.01-168.11,0-1.95,0-4.03,.5-5.76-.94,.33-.04,.67-.07,1-.11,1.58-.79,3.27-.42,4.91-.42,54.37-.02,108.74-.02,163.11,0,1.63,0,3.33-.43,4.88,.49,0,.33,0,.65-.03,.98Z"/><path class="ae" d="M415.97,191.05c-57.63-.02-115.27-.05-172.9-.07,1.75-1.41,3.83-.92,5.78-.92,53.79-.02,107.58-.02,161.37,0,1.95,0,4.04-.5,5.75,.99Z"/><path class="bk" d="M244.05,193.07c57.31-.02,114.61-.04,171.92-.06-1.71,1.51-3.79,1-5.74,1.01-53.47,.02-106.94,.02-160.4,0-1.95,0-4.03,.5-5.77-.94Z"/><path class="by" d="M415.97,410.98c-57.31-.01-114.62-.03-171.92-.04,1.73-1.45,3.82-.95,5.77-.95,53.47-.02,106.94-.02,160.41,0,1.95,0,4.04-.5,5.75,.99Z"/><path class="bv" d="M244.03,230.04c57.31,0,114.62,0,171.94-.01-1.72,1.47-3.8,.98-5.76,.98-53.47,.02-106.95,.02-160.42,0-1.95,0-4.03,.5-5.76-.97Z"/><path class="by" d="M244.03,377c56.97,0,113.95,0,170.92,0-1.72,1.47-3.81,.97-5.76,.97-53.14,.02-106.27,.02-159.41,0-1.95,0-4.03,.5-5.76-.97Z"/><path class="bh" d="M243.04,486.97c56.63,0,113.27,0,169.9,0-1.73,1.45-3.81,.96-5.76,.96-52.79,.02-105.59,.02-158.38,0-1.95,0-4.03,.5-5.76-.96Z"/><path class="r" d="M226.95,448.84c-3.11,.04-6.24-.2-9.31,.17-5,.59-6.47-1.54-5.42-6.11,.21-3.48,3.37-3.64,5.55-4.83,.82-.44,1.96-.18,2.93-.38q4.76-.98,4.83,4.12c0-1.64-.33-3.34,.08-4.89,.48-1.83,1.48-1.43,2.24,.01-.08,3.99,1.08,8.07-.92,11.9Z"/><path class="cf" d="M227,435.97c-2.04,2.93-.22,6.45-1.72,10.77-.16-3.5-.26-5.75-.38-8.19-3.97,2.43-9.37,.22-12.68,4.35,0-2.65,0-5.3,0-7.96,4.71-2.62,9.57-1.64,14.44-.62,.55,.46,.66,1.01,.34,1.65Z"/><path class="cm" d="M227.83,104.13c-3.44,1-6.85-.24-10.3-.17-3.51,.08-4.83,1.38-4.53,4.76,.13,1.48,.09,2.99,.02,4.48-.15,2.72,1.04,3.95,3.81,3.88,3.65-.09,7.3,0,10.95,0-4.55,2.3-9.36,.87-14.05,.83-1.68-.02-1.55-1.82-1.68-3.14-1.14-11.8-1.12-11.86,10.71-11.74,1.72,.02,3.7-.73,5.07,1.1Z"/><path class="aw" d="M359.99,86.07c2.37-1.78,5.13-1.03,7.68-.94,9.5,.33,18.97,1.08,28.31,2.95-12.04,.17-23.98-1.59-35.99-2Z"/><path class="bp" d="M441.13,525.86c1.79-5.45,.53-11.05,.81-16.58,.22-4.43,.07-8.87,.09-13.31,.67-.3,1.18-.13,1.53,.51,.76,10.23,.61,20.48,.27,30.72-.08,2.33-.33,5.09-3.24,6.19-1-.04-1.91-.19-1.69-1.55,.74-1.99,1.48-3.98,2.23-5.97Z"/><path class="ab" d="M212.14,483.96c.16,0,.33,0,.49,0,3.94-.12,8.47,.95,11.67-.65,3.96-1.98,.34-7.32,2.7-12.01,0,5.38,0,9.61,0,13.83-4.46,1.13-8.98,.32-13.47,.43-.94,.02-1.4-.65-1.39-1.59Z"/><path class="ad" d="M438.9,531.83c.36,.37,.71,.74,1.07,1.11,1.65,3.27-.95,4.66-2.85,6.31-1.49,1.29-3.34,1.96-5.15,2.68-2,.15-4.01,1.95-6.01,.01-.02-.39,.06-.77,.23-1.12,.26-.29,.55-.53,.88-.74,2.11-.93,4.62-1.05,6.24-3,2.82-.73,3.78-3.45,5.6-5.25Z"/><path class="s" d="M227,435.89l-.99-1.18c-4.57-.91-9.27,.49-13.83-.67-.08-.3-.13-.6-.13-.91,5.32-.98,10.64-1.24,15.95,.09-.01,.28,.03,.54,.14,.8,.65,4.61,.56,9.23,.06,13.85-.42,.32-.84,.65-1.26,.97,.02-4.32,.03-8.63,.05-12.94Z"/><path class="af" d="M218.05,83.05c.35,.01,.7,.02,1.05,.04-5.52,4.23-11.48,7.67-18.06,10-.09-.23-.19-.46-.28-.69,4.54-5.38,10.09-8.88,17.29-9.34Z"/><path class="i" d="M227,507.16v12.14c-2.25-4.04,1.16-8.96-2.58-10.74-3-1.42-7.11-.5-10.73-.61-.49-.02-.99,0-1.49,0-.13-.28-.16-.56-.11-.86,4.98-1.72,9.95-1.86,14.91,.09Z"/><path class="t" d="M212.24,374c4.57-.43,9.22,.73,13.77-.76,1.09-.36,.89,1.02,1.01,1.75-4.95-.06-10,1.56-14.78-.99Z"/><path class="co" d="M228,433.22c-5.32-.03-10.63-.06-15.95-.09,5.33-1.84,10.65-2.01,15.95,.09Z"/><path class="g" d="M227.98,323.22c-5.3,0-10.6,0-15.9,0,5.3-1.99,10.6-1.99,15.9,0Z"/><path class="d" d="M212.22,227h13.31c-4,1.64-8.21,.19-12.18,1.48-.9-.09-1.18-.66-1.13-1.48Z"/><path class="ac" d="M227.02,507.16c-4.97-.03-9.94-.06-14.91-.09-.03-.37-.05-.73-.08-1.1,4.99-.88,9.98-.8,14.97-.06,.3,.43,.59,.85,.89,1.28l-.44-.04h-.44Z"/><path class="ca" d="M212.19,154.05c5.2,0,10.39,0,15.59,0-5.2,1.68-10.39,1.69-15.59,0Z"/><path class="bo" d="M227.01,397.01c-4.8,2.05-9.84,.47-14.75,.96,4.78-2.44,9.82-.86,14.75-.96Z"/><path class="bg" d="M212.24,410.98c4.9,.44,9.92-.99,14.74,.87-4.92-.12-9.94,1.42-14.74-.87Z"/><path class="be" d="M212.18,434.04c4.93,.39,9.99-1.21,14.81,.9-4.93,0-9.85,0-14.78,0-.13-.29-.14-.59-.03-.9Z"/><path class="ba" d="M212.2,264.02c4.92,.48,9.97-1.09,14.79,.92-4.94-.22-9.99,1.43-14.79-.92Z"/><path class="cn" d="M227,505.91c-4.99,.02-9.98,.04-14.97,.06,4.99-1.69,9.98-1.59,14.97-.06Z"/><path class="x" d="M227.04,140.04c-4.82,2.15-9.89,.5-14.82,.99,4.8-2.38,9.88-.67,14.82-.99Z"/><path class="ct" d="M212.27,520.98c4.91,.43,9.94-1.1,14.75,.93-4.93-.09-9.96,1.49-14.75-.93Z"/><path class="bu" d="M228.2,447.87c-.02-4.62-.04-9.23-.06-13.85,1.41,4.61,1.33,9.23,.06,13.85Z"/><path class="cb" d="M196,96.01v-1.11c1.2-1.8,2.32-3.79,4.96-1.97l.02,.03c-.82,1.7-2.59,2.15-4.01,3.06l-.49-.02h-.49Z"/><path class="bd" d="M447.96,399.98c-1.89-46.19-1.19-92.41-.66-138.6,.16-13.68,.5-27.52,.06-41.1-.41-12.4,.89-24.74,.24-37.17-.63-12.11-.1-24.53,.45-36.79,.03-.76,.6-1.51,.91-2.26,0,83.06,0,166.12-.03,249.17,0,2.27,.66,4.69-.97,6.75Z"/><path class="b`" d="M432.01,541.93c2.52-3.13,7.6-3.98,8.01-8.99,2.73-1.76,3.01-4.5,3-7.38-.02-9.87-.01-19.74-.02-29.62-.93-1.72-.47-3.59-.47-5.38-.03-40.19-.02-80.37-.02-120.56,0-90.01,0-180.02,.02-270.02,0-1.96-.48-3.99,.46-5.89,.34-.67,.67-1.35,1.01-2.02,1.56,1.88,.97,4.14,.98,6.24,.03,34.57,.02,69.15,.02,103.73-.67,13.25-1.27,26.51,.37,39.72,.43,3.45-.93,6.52-.92,9.86,.08,43.27-.23,86.55,.28,129.82,.11,9.58,1.4,19.29,.61,28.82-1.57,18.78-.31,37.55-.8,56.31-.03,1.07-.19,2.17-.12,3.24l.59,11.89c-.04,14.48,.13,28.96-.05,43.43-.11,9-5.75,16.07-12.95,16.8Z"/><path class="ap" d="M426.93,540.91c.43,1.07-.45,.88-.98,1.03-5.59,2.34-11.18-.06-16.78-.05-46.96,.1-93.91,.06-140.87,.06-20.48,0-40.96,.07-61.44-.06-3.61-.02-7.22,1.67-10.82,.04,0-.32,0-.64,0-.96,1.54-.97,3.25-.51,4.87-.51,73.7-.03,147.41-.02,221.11,0,1.63,0,3.33-.41,4.9,.46Z"/><path class="ao" d="M444.96,471.95c-1.47-1.72-.98-3.81-.98-5.76-.02-86.13-.02-172.27,0-258.4,0-1.95-.49-4.04,.98-5.76,0,10.15-.01,20.29,0,30.44,0,3.13-.33,6.27,1.48,9.2,.61,.99,.79,2.86,.25,3.83-2.76,5.03-1.69,10.41-1.7,15.64-.08,38.75-.57,77.52,.29,116.25,.24,10.96,3.08,22.22,1.36,33.01-3.28,20.54-.62,41.06-1.69,61.54Z"/><path class="am" d="M426.93,540.91c-76.96,.02-153.92,.04-230.88,.06,0-.36,.02-.72,.02-1.08,73.34,.01,146.68,.02,220.02,.04,3.66,0,7.31,.1,10.97,.16-.05,.27-.09,.55-.13,.83Z"/><path class="f" d="M442.95,94.09V369.98c-.3,.66-.61,.66-.92,.01-.02-90.38-.04-180.77-.05-271.15,0-1.64-.28-3.36,.97-4.76Z"/><path class="aq" d="M442,370c.31,0,.62-.01,.93-.01,0,41.99,0,83.97,0,125.96-.31,0-.62,.01-.93,.03,0-41.99,0-83.98,0-125.98Z"/><path class="cd" d="M392.25,80.12c-3.63,4.2-7.11,5.24-12.09,4.18-5.59-1.19-11.6,.45-17.31-1.19-.92-.27-2.19-.12-2.31-1.41-.13-1.37,1.07-1.56,2.05-1.56,9.72-.03,19.44-.02,29.66-.02Z"/><path class="y" d="M385.97,78.05c-.33,.02-.65,.03-.98,.04-9.65-.02-19.31-.04-28.96-.06-.5-.92,4.03-.65,.53-2.33-2.08-1-3.99-2.38-6.11-3.28-2.68-1.15-3.07-2.86-1.59-5.08,2.11-3.15,4.72-5.36,8.92-5.33,4.78,.03,9.9-.9,14.29-.04,4.69,.92,9.95,.48,14.32,3.61,4.64,3.33,5.1,6.24,.63,10.13-.83,.72-1.57,1.15-1.06,2.33Z"/><path class="au" d="M224.03,72.07c-5.29,7.56-13.25,5.88-20.71,6.05-2.42,.05-5.02-.8-7.22,1.01,.06,.26,.13,.53,.19,.79,0,3.44,1.34,7.04-1.24,10.16h0c-4.31,1.3-7.91,4.57-12.72,4.49-2.44-.04-4.74-.5-5.82-2.93-1.08-2.43,.04-4.57,1.69-6.32,3.96-4.2,8.33-7.94,13.09-11.22,.25,0,.5-.02,.75-.03,6.4-1.63,11.08-6.53,17.14-8.96,5.11-2.05,10.42-3.08,15.61-4.69,2.41-.75,3.33,.58,2.94,3.02-.51,3.2-2.2,5.87-3.7,8.63Z"/><path class="ch" d="M209.03,62.08c5.87-4.64,12.66-7,19.99-8-.07,1-.08,2.45-1.1,2.57-6.62,.73-12.28,4.74-18.89,5.43Z"/><path class="an" d="M188.02,74.07c.67-.67,1.34-1.33,2.01-2,1.27-.57,2.28-2.22,4-1-.67,1-1.33,2-2,3h0c-1.33,.79-2.66,1.39-3.99,0h-.03Z"/><path class="bm" d="M194.04,70.08c1.07-2.12,3.05-2.02,4.98-2.02-1.07,2.13-3.05,2.02-4.98,2.02Z"/><path class="bm" d="M194.04,71.07c-1.33,.33-2.67,.66-4,1,.84-1.66,2.31-2.06,4.01-1.99,0,.33,0,.66,0,.99Z"/><path class="bb" d="M188.05,74c1.33,0,2.66,0,3.99,0-2.63,4.94-8.39,6.56-11.56,10.98-1.43,1.98-4.25,3.97-2.41,6.28,1.89,2.38,5.57,2.66,8.15,.89,2.7-1.86,5.42-2.28,8.4-2.16l.41,2c-5.34,2.55-10.51,5.53-16.77,5.28-2.77-.11-5.96,.76-7.35-2.47-1.36-3.18,1.07-5.15,3.12-7.18,3.29-3.26,7.27-5.8,10.01-9.62,1.68-.99,3.01-2.33,4.01-4Z"/><path class="an" d="M184.04,78.01c-1.49,4.32-5.3,6.6-8.44,9.44-2.12,1.92-4.72,3.82-3.21,7.02,1.4,2.96,4.25,2.02,6.96,1.8,5.54-.45,10.25-3.61,15.68-4.26-2.72,3.01-6.25,4.69-9.99,6-5.66,0-11.33,0-16.99,0,.11-3.41,1.01-6.48,3.49-9.02,3.9-3.98,7.84-7.89,12.51-10.98Z"/><path class="bc" d="M201.02,93.05c-1.65,.66-3.31,1.32-4.96,1.97-.04-1.67-.08-3.33-.12-5-.6-3.66-.77-7.31,.13-10.95l.02,.05c7.63-.05,15.27-.1,22.9-.15,1.27,.08,2.53,.16,4,.26-1.15,2.21-3.74,2.12-4.95,3.81-5.85,3.04-11.97,5.61-17.02,10Z"/><path class="bb" d="M196.07,79.08c-.04,3.65-.08,7.3-.12,10.95-.3,.02-.6,.04-.9,.05,.42-3.66-1.02-7.49,1.02-11Z"/><path class="j" d="M199.03,91.07c-4.18-1.95-1.38-5.55-1.84-8.34-.36-2.13,1.52-2.64,3.36-2.64,3.16,0,6.32,0,9.48-.02,1.95,3.66-1.42,4.52-3.35,5.21-3.28,1.17-5.73,3.03-7.65,5.79Z"/><path class="at" d="M199.03,91.07c1.04-3.99,2.28-7.55,7.63-7.27,1.93,.1,3.06-1.73,3.36-3.73,.98,.02,1.97,0,2.95,.07,1.02,.07,2.13,.35,2.36,1.41,.32,1.49-1.08,1.78-2.08,2.28-4.74,2.41-9.49,4.82-14.23,7.23Z"/></g></g></g></svg>